<svg xmlns="http://www.w3.org/2000/svg" version="1.1" xmlns:xlink="http://www.w3.org/1999/xlink" xmlns:svgjs="http://svgjs.dev/svgjs" width="1440" height="560" preserveAspectRatio="none" viewBox="0 0 1440 560"><g mask="url(&quot;#SvgjsMask1005&quot;)" fill="none"><rect width="1440" height="560" x="0" y="0" fill="#0e2a47"></rect><path d="M 0,117 C 57.6,132 172.8,207 288,192 C 403.2,177 460.8,29.4 576,42 C 691.2,54.6 748.8,250.8 864,255 C 979.2,259.2 1036.8,69.4 1152,63 C 1267.2,56.6 1382.4,191 1440,223L1440 560L0 560z" fill="#184a7e"></path><path d="M 0,557 C 96,511.6 288,339.6 480,330 C 672,320.4 768,513.2 960,509 C 1152,504.8 1344,349 1440,309L1440 560L0 560z" fill="#2264ab"></path></g><defs><mask id="SvgjsMask1005"><rect width="1440" height="560" fill="#ffffff"></rect></mask></defs></svg>