<svg width="40" height="40" viewBox="0 0 40 40" fill="none" xmlns="http://www.w3.org/2000/svg">
<path d="M20.0019 0C14.5702 0 13.8885 0.0237506 11.7551 0.120835C9.62593 0.218336 8.17259 0.555423 6.90091 1.05001C5.58547 1.56085 4.46963 2.24419 3.35795 3.35629C2.24544 4.46796 1.5621 5.58381 1.04959 6.89882C0.553755 8.17092 0.216252 9.62468 0.120418 11.753C0.0250001 13.8864 0 14.5685 0 20.0002C0 25.4319 0.0241673 26.1115 0.120835 28.2449C0.218753 30.3741 0.555839 31.8274 1.05001 33.0991C1.56127 34.4145 2.24461 35.5304 3.3567 36.642C4.46796 37.7546 5.58381 38.4396 6.89841 38.9504C8.17092 39.445 9.62468 39.7821 11.7535 39.8796C13.8868 39.9767 14.5681 40.0004 19.9994 40.0004C25.4315 40.0004 26.1111 39.9767 28.2445 39.8796C30.3737 39.7821 31.8287 39.445 33.1012 38.9504C34.4162 38.4396 35.5304 37.7546 36.6416 36.642C37.7541 35.5304 38.4375 34.4145 38.95 33.0995C39.4417 31.8274 39.7792 30.3736 39.8792 28.2453C39.975 26.1119 40 25.4319 40 20.0002C40 14.5685 39.975 13.8868 39.8792 11.7535C39.7792 9.62427 39.4417 8.17092 38.95 6.89924C38.4375 5.58381 37.7541 4.46796 36.6416 3.35629C35.5291 2.24377 34.4166 1.56043 33.0999 1.05001C31.8249 0.555423 30.3707 0.218336 28.2415 0.120835C26.1082 0.0237506 25.429 0 19.9956 0H20.0019ZM18.2077 3.6042C18.7402 3.60337 19.3344 3.6042 20.0019 3.6042C25.3419 3.6042 25.9749 3.62337 28.0836 3.71921C30.0336 3.80837 31.092 4.13421 31.797 4.40796C32.7303 4.77047 33.3958 5.2038 34.0954 5.90381C34.7954 6.60382 35.2287 7.27049 35.592 8.20384C35.8658 8.90801 36.192 9.96635 36.2808 11.9164C36.3766 14.0247 36.3975 14.6581 36.3975 19.9956C36.3975 25.3332 36.3766 25.9665 36.2808 28.0749C36.1916 30.0249 35.8658 31.0832 35.592 31.7874C35.2295 32.7208 34.7954 33.3853 34.0954 34.0849C33.3953 34.7849 32.7308 35.2183 31.797 35.5808C31.0928 35.8558 30.0336 36.1808 28.0836 36.27C25.9753 36.3658 25.3419 36.3866 20.0019 36.3866C14.6614 36.3866 14.0285 36.3658 11.9201 36.27C9.9701 36.18 8.91176 35.8541 8.20634 35.5804C7.27299 35.2179 6.60632 34.7845 5.90631 34.0845C5.2063 33.3845 4.77297 32.7195 4.40963 31.7857C4.13588 31.0816 3.80962 30.0232 3.72087 28.0732C3.62504 25.9649 3.60587 25.3315 3.60587 19.9906C3.60587 14.6497 3.62504 14.0197 3.72087 11.9114C3.81004 9.96135 4.13588 8.90301 4.40963 8.198C4.77213 7.26466 5.2063 6.59798 5.90631 5.89798C6.60632 5.19797 7.27299 4.76463 8.20634 4.4013C8.91134 4.12629 9.9701 3.80129 11.9201 3.71171C13.7651 3.62837 14.4802 3.60337 18.2077 3.5992V3.6042ZM30.6778 6.92507C29.3528 6.92507 28.2778 7.99883 28.2778 9.32426C28.2778 10.6493 29.3528 11.7243 30.6778 11.7243C32.0028 11.7243 33.0778 10.6493 33.0778 9.32426C33.0778 7.99925 32.0028 6.92424 30.6778 6.92424V6.92507ZM20.0019 9.72927C14.3297 9.72927 9.73094 14.3281 9.73094 20.0002C9.73094 25.6723 14.3297 30.2691 20.0019 30.2691C25.674 30.2691 30.2711 25.6723 30.2711 20.0002C30.2711 14.3281 25.6736 9.72927 20.0015 9.72927H20.0019ZM20.0019 13.3335C23.6836 13.3335 26.6686 16.3181 26.6686 20.0002C26.6686 23.6819 23.6836 26.6669 20.0019 26.6669C16.3198 26.6669 13.3351 23.6819 13.3351 20.0002C13.3351 16.3181 16.3198 13.3335 20.0019 13.3335Z" fill="#3e3f5d"/>
</svg>
